PathFileType	4	(X/Y/Z)	D:\TRACE\v60_Jaco2_6-2-23\v60_baseline_3-v60.trc
DataRate	CameraRate	NumFrames	NumMarkers	Units	OrigDataRate	OrigDataStartFrame	OrigNumFrames
100.00	100.00	      41	9	mm	100.00	5688	      6500
Frame#	Time	front left toe			Front right toe			aft left toe			aft right toe			Arm			FL body			FR body			AL Body			AR Body			
		X1	Y1	Z1	X2	Y2	Z2	X3	Y3	Z3	X4	Y4	Z4	X5	Y5	Z5	X6	Y6	Z6	X7	Y7	Z7	X8	Y8	Z8	X9	Y9	Z9	

5688	56.870	-153.69102	18.80165	-186.04208	233.59738	18.86462	-191.31178	-147.98441	16.58662	434.39386	224.42497	18.75249	440.00854	-66.98038	1209.62268	-317.63275	-38.20617	579.21100	-319.13046	121.99739	579.65216	-318.60214	-42.95552	565.25220	627.03101	113.82662	559.75226	628.01947	
5689	56.880	-153.31502	18.79928	-185.65977	230.30769	22.35412	-188.63870	-145.47577	19.62493	436.73407	224.31178	18.27655	439.20016	-66.62012	1210.56287	-318.04257	-37.31361	580.03552	-319.13672	121.81995	580.84991	-318.40283	-43.56499	565.99371	627.41028	113.25634	559.72638	627.87701	
5690	56.890	-153.20801	18.77115	-186.59041	227.47659	26.30688	-185.10335	-143.24301	22.19921	439.41635	224.30228	18.51154	439.27347	-62.23076	1212.56470	-315.52612	-37.63753	581.20050	-320.03705	122.55287	581.88043	-318.81711	-43.78743	565.00409	626.39075	112.60119	559.70728	627.62659	
5691	56.900	-153.26544	18.45142	-186.36398	224.78847	34.48342	-183.38727	-139.95164	30.79292	439.48453	224.28494	18.40217	439.07428	-57.17870	1214.04517	-310.44461	-37.30703	581.52429	-320.27759	123.22998	582.12781	-319.21146	-44.16018	565.12048	625.96936	112.44920	559.88525	627.20264	
5692	56.910	-153.44786	18.29433	-186.50110	223.99312	42.83352	-182.27438	-137.71992	38.87860	439.25980	224.14503	18.45501	439.22403	291.11975	1279.88147	-21.50984	-37.22000	581.63226	-320.48441	123.22607	582.14209	-319.50534	-44.19404	565.02948	625.68250	112.48557	559.88849	627.03986	
5693	56.920	-153.40846	18.28588	-186.43307	224.62582	53.85121	-183.10492	-138.19193	50.54124	437.31897	224.28018	18.33339	439.30978	-64.91460	1213.32129	-315.39859	-37.32746	581.68323	-320.67111	123.28013	582.15021	-319.59634	-44.02969	564.70959	625.48712	112.58824	559.39996	626.97656	
5694	56.930	-153.57878	18.33127	-186.41685	226.94449	64.99284	-184.87842	-140.88892	61.67027	436.08282	224.59702	17.99901	439.28506	-65.78181	1212.97876	-315.10556	-37.38075	581.71460	-320.70724	123.11333	582.19238	-319.71078	-43.50926	563.91437	625.64221	113.14298	558.76416	626.98010	
5695	56.940	-153.64455	18.26040	-186.44374	227.97449	76.62173	-187.03011	-143.24428	73.05360	434.23413	224.69611	17.70444	439.21194	-65.46957	1212.52100	-316.30243	-37.55056	581.67108	-320.65561	122.97598	582.20569	-320.04410	-43.13123	563.12537	625.54639	113.57695	557.60748	626.86621	
5696	56.950	-153.69806	18.10157	-186.45351	229.59117	88.03647	-188.89423	-144.80022	84.14955	433.27444	224.67657	17.41733	439.09579	-65.42529	1212.07971	-316.12363	-37.77014	581.51459	-320.51602	122.73846	581.99988	-320.14465	-42.99546	562.23407	625.55334	114.21503	556.96405	626.87750	
5697	56.960	-153.69832	17.83441	-186.25012	230.41650	99.11494	-189.95291	-145.73276	95.20592	432.88101	224.66170	17.37668	439.08997	-65.57040	1211.65503	-315.68326	-37.80298	581.00079	-320.54739	122.27735	581.51404	-319.45941	-42.32759	561.66144	625.71307	114.49624	556.51843	626.75226	
5698	56.970	-153.63834	17.75636	-186.21114	229.87798	109.49962	-190.60156	-145.77528	105.96001	432.42212	224.67735	17.34241	439.12738	-65.88509	1211.18469	-314.92126	-37.78399	580.77319	-320.46988	122.57355	581.25494	-319.66757	-42.82174	561.72699	626.06787	114.71763	556.00745	626.81311	
5699	56.980	-153.71292	17.80459	-186.08290	229.95677	119.22479	-190.63765	-144.60251	115.52359	432.29214	224.68211	17.30213	439.15292	-66.20972	1211.14124	-314.37387	-38.11766	580.59875	-320.14716	122.42356	580.95361	-319.60034	-42.22072	561.42206	626.27484	115.05415	555.55798	626.91022	
5700	56.990	-153.71971	17.70988	-186.05952	230.09686	128.09840	-190.68312	-143.55457	123.64256	432.34067	224.69054	17.29291	439.17502	-66.49254	1211.25830	-314.20871	-38.13399	579.99200	-319.87271	122.00104	580.46088	-319.18228	-41.82066	561.20087	626.40442	115.32877	555.35419	627.13721	
5701	57.000	-153.77538	17.64131	-185.94978	230.82104	135.44781	-190.63652	-143.94724	132.11984	432.07416	224.71902	17.26978	439.21777	-66.58794	1211.01941	-314.15009	-38.73746	579.90570	-319.70721	121.61423	580.04944	-318.98236	-41.57193	560.85480	626.75879	115.73564	555.19366	627.29553	
5702	57.010	-153.73280	17.49401	-185.76921	232.09271	141.86391	-190.16693	-144.68066	138.11987	432.32498	224.72693	17.20662	439.21188	-67.31843	1210.65540	-312.72855	-38.77892	579.63739	-319.38727	121.30946	579.94037	-318.67886	-40.51379	560.13190	626.84497	115.85056	555.09601	627.46088	
5703	57.020	-153.77696	17.36184	-185.65562	233.03647	145.62411	-189.53833	-145.88350	141.87090	432.71671	224.78026	17.16241	439.25427	-66.72477	1210.04968	-314.02896	-37.82724	578.66504	-318.34598	121.14763	579.86798	-318.51849	-40.09376	560.48846	627.33765	116.48509	555.06879	627.75305	
5704	57.030	-153.77840	17.42470	-185.48517	233.23097	146.75620	-188.49910	-147.21803	142.11958	434.17154	224.73071	17.12358	439.24896	-66.74113	1209.82874	-313.87268	-38.61359	578.90186	-318.14697	120.91051	579.86572	-318.29886	-39.67697	560.58990	627.65143	116.99194	555.28833	628.20520	
5705	57.040	-153.78952	17.54103	-185.42453	233.13010	145.75529	-187.35143	-147.86443	141.67111	435.09903	224.81804	17.12431	439.25165	-67.57860	1209.95337	-313.43210	-39.87767	579.41583	-318.07278	121.10104	579.83472	-318.06021	-39.14928	560.89105	628.03931	117.31802	555.52124	628.56744	
5706	57.050	-153.85960	17.62555	-185.41806	232.73665	142.59001	-186.20039	-148.58623	139.58002	436.11722	224.83923	17.15129	439.24002	-67.74107	1209.93250	-313.03836	-39.96163	579.46875	-317.71579	120.76908	579.76221	-317.48621	-39.03683	561.05011	628.61389	117.49396	555.67792	628.83850	
5707	57.060	-153.81723	17.58577	-185.44370	231.64844	137.85690	-185.18834	-148.87218	136.40944	437.93076	224.91783	17.17911	439.24808	-63.82755	1210.88672	-309.28052	-39.75109	579.36938	-317.23935	120.52941	579.68274	-317.26703	-38.68933	561.17120	629.10120	117.94135	555.88306	629.15582	
5708	57.070	-153.74988	17.51829	-185.42188	230.65273	132.74513	-183.96973	-149.40752	132.16222	439.65164	224.82114	17.14816	439.23785	-66.95395	1211.65881	-312.69708	-39.81187	579.26660	-316.76477	119.95319	579.57013	-316.85580	-38.38652	561.32507	629.30951	117.99035	555.63129	629.53461	
5709	57.080	-153.79228	17.49861	-185.37639	230.26228	126.55109	-183.06610	-148.82202	126.22390	441.54562	224.86784	17.13512	439.29251	-66.99598	1211.19409	-311.63452	-40.14015	579.12939	-316.16696	119.59686	579.57831	-316.54868	-38.23554	561.28864	629.81177	118.24438	555.59448	629.89404	
5710	57.090	-153.80710	17.56936	-185.29683	230.05145	119.73826	-181.95921	-150.49966	120.16893	442.76871	224.96089	17.06314	439.24741	-66.27381	1211.37415	-310.59341	-40.19910	578.98956	-315.28937	119.37062	579.66608	-316.04028	-37.96400	561.13770	630.29919	118.50774	555.45203	630.33417	
5711	57.100	-153.84904	17.53385	-185.30188	229.87401	112.34856	-181.16580	-150.44492	111.56039	444.70587	224.99095	17.01927	439.25220	-66.86456	1211.31799	-310.52762	-40.46548	579.18469	-315.09735	119.43829	579.60779	-315.86838	-37.79095	560.96289	630.81561	119.07226	555.38849	630.63879	
5712	57.110	-153.85190	17.50839	-185.33244	229.77443	104.87926	-180.23552	-152.16667	103.93805	445.59070	225.02858	17.03059	439.28680	-67.61871	1210.13684	-309.90814	-40.66774	579.17987	-314.44565	118.80424	579.37982	-315.13510	-37.62698	560.42664	631.38623	119.12656	555.22119	631.03534	
5713	57.120	-153.93773	17.50079	-185.28748	229.13983	96.65835	-179.85822	-152.83836	95.50758	446.64447	225.09702	16.91893	439.34879	-67.65554	1210.19214	-309.36758	-41.75117	579.14740	-314.59848	119.01994	579.27240	-315.04477	-37.63262	560.58514	631.74933	119.24866	555.14465	631.52673	
5714	57.130	-153.87373	17.38849	-185.27721	228.20821	88.10914	-179.01329	-153.29535	87.54642	446.85239	225.12151	16.84944	439.41699	-66.89168	1211.58057	-309.66937	-41.93266	579.05273	-313.84998	118.80161	579.12347	-314.60440	-37.45426	560.57184	632.05566	119.68768	555.13513	631.93976	
5715	57.140	-153.95493	17.44317	-185.21255	227.38969	79.30481	-178.13582	-153.70796	79.32214	447.27667	225.21770	16.83743	439.42572	-66.98576	1211.17786	-307.84808	-41.79746	578.98657	-313.43896	118.45774	578.98950	-314.48514	-37.44324	560.51819	632.51953	119.52605	554.87646	632.29620	
5716	57.150	-154.06366	17.50388	-185.18182	226.92703	70.55007	-176.93079	-154.66042	71.15337	448.12204	225.11249	16.76950	439.47925	-67.02279	1211.08984	-307.53116	-42.11780	579.15503	-313.05405	118.04551	578.95129	-314.09937	-37.60857	560.34698	633.07245	119.47681	554.73206	632.61566	
5717	57.160	-154.04555	17.45667	-185.15147	227.13110	62.10019	-176.08611	-155.37473	62.55557	448.52505	225.20839	16.74995	439.47256	-67.20809	1211.25696	-306.98480	-42.53960	579.09369	-312.59412	117.65642	579.01599	-313.73334	-37.49194	560.30231	633.58539	119.38130	554.41077	633.04559	
5718	57.170	-154.06248	17.44862	-185.16675	227.49701	53.40288	-174.97362	-155.81998	53.75985	449.84576	225.13161	16.80741	439.49252	-67.25538	1211.26892	-306.66187	-42.96889	579.07349	-311.94238	117.57320	578.97198	-312.88446	-37.42168	560.24347	634.05701	119.14165	554.25690	633.69128	
5719	57.180	-154.05130	17.37687	-185.12068	227.79755	45.48384	-174.10739	-156.38872	45.46929	450.87668	225.16982	16.78756	439.48611	-67.22564	1211.20398	-306.12704	-42.45425	578.88074	-311.15637	117.54816	578.92505	-312.60257	-37.29875	560.04742	634.47113	119.08633	554.16962	634.06970	
5720	57.190	-154.04280	17.39207	-185.08333	227.48329	37.85328	-173.26102	-156.24951	37.66198	452.09229	225.07729	16.84553	439.50385	-68.25195	1211.27271	-305.24039	-42.52170	578.75824	-310.89871	117.16403	579.03339	-312.53815	-37.70317	559.85504	634.71442	119.04546	554.00446	634.45721	
5721	57.200	-154.08694	17.39725	-185.05507	227.39922	30.97871	-172.45882	-155.92453	30.53858	452.48630	225.13747	16.84300	439.56497	-68.81721	1211.07434	-305.15445	-43.51896	579.02258	-310.79620	116.84447	579.18304	-311.90228	-37.47408	559.85187	635.10193	119.12144	553.98608	634.84552	
5722	57.210	-154.12837	17.39059	-185.07579	227.13402	24.59676	-171.71716	-156.16589	24.07116	452.79550	225.09694	16.83955	439.63531	-68.88426	1211.37817	-303.96353	-44.12164	579.28339	-310.24802	116.71767	579.27087	-310.97473	-38.03395	559.32806	635.74463	118.61488	553.84320	635.18488	
5723	57.220	-154.15749	17.36940	-185.00215	226.57486	19.62123	-172.18434	-156.41508	18.83412	452.26532	225.20943	16.76484	439.64975	-69.18916	1211.43408	-303.13470	-43.89190	579.20557	-309.85168	116.18871	579.30951	-310.41019	-38.18351	558.88129	636.22052	118.36554	553.34991	635.79883	
5724	57.230	-154.01604	17.30544	-184.99757	227.31879	17.49854	-172.61823	-157.07320	16.45116	452.17059	225.02888	16.80221	439.66760	-70.14146	1211.15308	-303.26791	-43.91141	579.31628	-309.40573	115.97818	579.47852	-310.12357	-38.16795	559.01709	636.67737	118.38208	553.33215	636.19403	
5725	57.240	-153.83220	17.31941	-184.78275	227.75153	17.48616	-173.95348	-157.58951	17.40158	451.27808	224.82014	17.02809	439.84744	-70.75687	1211.30383	-302.59540	-44.60001	579.65381	-308.80176	115.53925	579.75641	-309.54813	-38.29864	559.85461	637.22827	118.16455	553.91986	636.68384	
5726	57.250	-153.67517	18.43334	-185.00664	227.44606	17.01930	-172.80286	-157.07571	16.73838	452.25644	224.87639	17.86675	439.39923	-70.99765	1212.01599	-301.54730	-45.25179	580.44861	-308.06644	115.24039	580.91638	-309.16632	-38.57779	560.55048	637.89087	118.34959	554.92157	637.39923	
5727	57.260	-152.22478	21.96034	-184.28627	226.81488	17.16612	-172.56445	-157.32957	16.13259	452.32489	224.10750	20.61599	440.75204	-72.20068	1213.13562	-301.72116	-45.27213	581.48505	-307.65155	114.18524	582.12878	-308.84677	-38.31106	560.90277	638.38232	118.23633	555.02606	637.60474	
5728	57.270	-149.49390	25.56949	-180.18576	226.60641	17.59345	-173.19112	-157.28551	16.10319	452.17609	220.88029	23.15201	444.77380	-73.09763	1214.47400	-301.22495	-45.91383	582.52515	-307.26071	114.54260	583.21674	-308.38297	-38.01270	560.62640	638.73615	118.24928	554.98022	637.75836	
